<svg xmlns="http://www.w3.org/2000/svg" width="64" height="64" viewBox="0 0 64 64" fill="none">
  <rect width="64" height="64" rx="14" fill="#111827"/>
  <path d="M45.7 24.8c-2.1-2.7-5.1-4.3-8.8-4.5-4-.2-7.1 1.7-8.8 1.7-1.8 0-4.4-1.6-7.3-1.5-3.7.1-7.1 2.1-9 5.2-3.9 6.7-1 16.7 2.8 22.2 1.9 2.7 4.1 5.7 7.1 5.6 2.9-.1 4-1.8 7.5-1.8s4.5 1.8 7.6 1.7c3.1-.1 5.1-2.8 7-5.6 2.1-3 3-6 3-6.2-.1 0-5.7-2.2-5.8-8.8-.1-5.5 4.5-8.1 4.7-8.2Z" fill="#fff"/>
  <path d="M34.4 16.2c1.6-2 4.3-3.5 6.5-3.6.3 2.8-.8 5.5-2.4 7.4-1.6 2-4.2 3.6-6.7 3.4-.3-2.7 1-5.3 2.6-7.2Z" fill="#fff"/>
</svg>
