<svg xmlns="http://www.w3.org/2000/svg" width="64" height="64" viewBox="0 0 64 64" fill="none">
  <circle cx="32" cy="32" r="30" fill="#fff"/>
  <path d="M32 10a22 22 0 0 1 14.9 5.8l-6 6A13.6 13.6 0 0 0 32 18.5c-6.2 0-11.4 4.2-13.2 9.9l-6.9-5.3A22 22 0 0 1 32 10Z" fill="#EA4335"/>
  <path d="M12.8 23.1a22 22 0 0 0 0 17.8l7-5.4a13.6 13.6 0 0 1 0-7l-7-5.4Z" fill="#FBBC05"/>
  <path d="M32 54a22 22 0 0 1-20.2-13.1l7-5.4A13.6 13.6 0 0 0 32 45.5c3.2 0 6.1-1.1 8.3-2.9l6 6A22 22 0 0 1 32 54Z" fill="#34A853"/>
  <path d="M54 32c0 1.6-.2 3.2-.5 4.7H32v-9.2h21A22.9 22.9 0 0 1 54 32Z" fill="#4285F4"/>
</svg>
