<svg xmlns="http://www.w3.org/2000/svg" viewBox="0 0 512 512" role="img" aria-label="FaithHub">
  <defs>
    <linearGradient id="fh_green" x1="130" y1="380" x2="470" y2="260" gradientUnits="userSpaceOnUse">
      <stop offset="0" stop-color="#34d399"/>
      <stop offset="1" stop-color="#03cd8c"/>
    </linearGradient>
    <linearGradient id="fh_green_soft" x1="120" y1="420" x2="210" y2="140" gradientUnits="userSpaceOnUse">
      <stop offset="0" stop-color="#7ae6c3"/>
      <stop offset="1" stop-color="#34d399"/>
    </linearGradient>
  </defs>

  <!-- Outer orange arc -->
  <path
    d="M95 210c20-70 78-130 156-156 76-26 159-10 219 40 13 11 15 30 4 43-11 13-30 15-43 4-44-37-103-49-158-30-57 19-100 63-116 120-5 16-22 26-38 21-16-5-26-22-21-38z"
    fill="#f77f00"
  />

  <!-- Left soft-green sweep -->
  <path
    d="M160 408c-6-56-5-101 3-139 9-41 27-76 54-109 10-12 28-14 41-4 12 10 14 28 4 41-20 24-34 52-41 82-7 31-7 69-1 117 2 17-10 32-27 34-17 2-32-10-34-27z"
    fill="url(#fh_green_soft)"
  />

  <!-- Right green leaf -->
  <path
    d="M236 446c36-60 86-100 140-128 44-22 86-31 118-34 17-2 31 10 33 27 2 17-10 31-27 33-25 3-59 10-96 29-46 23-86 56-114 103-9 14-27 19-41 10-14-9-19-27-10-40z"
    fill="url(#fh_green)"
  />

  <!-- Inner leaf vein highlight -->
  <path
    d="M278 448c41-41 82-69 125-88 7-3 15 0 18 7 3 7 0 15-7 18-39 17-76 43-114 81-5 5-14 5-19 0-5-5-5-14 0-19z"
    fill="#eafff6"
    opacity="0.9"
  />

  <!-- Cross -->
  <path
    d="M235 108h66v104h104v66H301v158l-66 44V278H131v-66h104V108z"
    fill="#f77f00"
  />
</svg>

